{
  "asset": {
    "version": "2.0",
    "generator": "3dpea GLTFExporter"
  },
  "scenes": [
    {
      "name": "AuxScene",
      "nodes": [
        1
      ]
    }
  ],
  "scene": 0,
  "nodes": [
    {
      "name": "Mesh1",
      "extras": {
        "name": "Mesh1"
      },
      "mesh": 0
    },
    {
      "name": "model (2).glb",
      "children": [
        0
      ]
    }
  ],
  "bufferViews": [
    {
      "buffer": 0,
      "byteOffset": 0,
      "byteLength": 225696,
      "target": 34962,
      "byteStride": 12
    },
    {
      "buffer": 0,
      "byteOffset": 225696,
      "byteLength": 225696,
      "target": 34962,
      "byteStride": 12
    },
    {
      "buffer": 0,
      "byteOffset": 451392,
      "byteLength": 150464,
      "target": 34962,
      "byteStride": 8
    },
    {
      "buffer": 0,
      "byteOffset": 601856,
      "byteLength": 178992,
      "target": 34963
    }
  ],
  "buffers": [
    {
      "byteLength": 780848,
      "uri": "data:application/octet-stream;base64,"
    }
  ],
  "accessors": [
    {
      "bufferView": 0,
      "componentType": 5126,
      "count": 18808,
      "max": [
        0.9994423985481262,
        0.9999854564666748,
        0.9999875426292419
      ],
      "min": [
        -0.9999921321868896,
        -0.9999798536300659,
        -0.9999806880950928
      ],
      "type": "VEC3"
    },
    {
      "bufferView": 1,
      "componentType": 5126,
      "count": 18808,
      "max": [
        0.6000000238418579,
        0.2980519235134125,
        0.31416216492652893
      ],
      "min": [
        -0.6000000238418579,
        -0.2980519235134125,
        -0.31416216492652893
      ],
      "type": "VEC3"
    },
    {
      "bufferView": 2,
      "componentType": 5126,
      "count": 18808,
      "max": [
        0.9995751976966858,
        0.9995759129524231
      ],
      "min": [
        0.0004248088225722313,
        0.00042408821173012257
      ],
      "type": "VEC2"
    },
    {
      "bufferView": 3,
      "componentType": 5123,
      "count": 89496,
      "max": [
        18807
      ],
      "min": [
        0
      ],
      "type": "SCALAR"
    }
  ],
  "materials": [
    {
      "pbrMetallicRoughness": {
        "metallicFactor": 1,
        "roughnessFactor": 1,
        "metallicRoughnessTexture": {
          "index": 0
        },
        "baseColorTexture": {
          "index": 1
        }
      },
      "name": "defaultMat"
    }
  ],
  "textures": [
    {
      "sampler": 0,
      "source": 0,
      "name": "tex_metallic_roughness"
    },
    {
      "sampler": 1,
      "source": 1,
      "name": "tex_base_color"
    }
  ],
  "samplers": [
    {
      "magFilter": 9729,
      "minFilter": 9987,
      "wrapS": 10497,
      "wrapT": 10497
    },
    {
      "magFilter": 9729,
      "minFilter": 9987,
      "wrapS": 10497,
      "wrapT": 10497
    }
  ],
  "images": [
    {
      "mimeType": "image/png",
      "uri": "data:image/png;base64,"
    },
    {
      "mimeType": "image/png",
      "uri": "data:image/png;base64,"
    }
  ],
  "meshes": [
    {
      "primitives": [
        {
          "mode": 4,
          "attributes": {
            "NORMAL": 0,
            "POSITION": 1,
            "TEXCOORD_0": 2
          },
          "indices": 3,
          "material": 0
        }
      ]
    }
  ]
}